<?xml version="1.0" encoding="UTF-8"?>
<svg width="40px" height="40px" viewBox="0 0 40 40" version="1.1" xmlns="http://www.w3.org/2000/svg" xmlns:xlink="http://www.w3.org/1999/xlink">
    <!-- Generator: Sketch 52.3 (67297) - http://www.bohemiancoding.com/sketch -->
    <title>Facebook</title>
    <desc>Created with Sketch.</desc>
    <g id="Symbols" stroke="none" stroke-width="1" fill="none" fill-rule="evenodd">
        <g id="Icons/Social/Facebook" fill="#000000">
            <path d="M40,37.7924873 C40,39.0117404 39.0117404,40.0010896 37.7924873,40.0010896 L27.5993571,40.0010896 L27.5993571,24.5103647 L32.7988886,24.5103647 L33.5779467,18.4740269 L27.5993571,18.4740269 L27.5993571,14.6190515 C27.5993571,12.8713465 28.085315,11.6804228 30.5913759,11.6804228 L33.7882379,11.6793332 L33.7882379,6.27931683 C33.2347253,6.20631418 31.3377462,6.04178584 29.1302334,6.04178584 C24.5212607,6.04178584 21.3658032,8.85511155 21.3658032,14.0219553 L21.3658032,18.4740269 L16.1531966,18.4740269 L16.1531966,24.5103647 L21.3658032,24.5103647 L21.3658032,40.0010896 L2.20751273,40.0010896 C0.98825965,40.0010896 0,39.0117404 0,37.7924873 L0,2.20860233 C0,0.98825965 0.98825965,0 2.20751273,0 L37.7924873,0 C39.0117404,0 40,0.98825965 40,2.20860233 L40,37.7924873" id="Mask"></path>
        </g>
    </g>
</svg>