<svg width="160" height="18" viewBox="0 0 160 18" fill="none" xmlns="http://www.w3.org/2000/svg">
<path fill-rule="evenodd" clip-rule="evenodd" d="M1.56227e-06 9.00429V8.95701C0.00324031 4.24668 3.50325 0.348304 8.27609 0.351565C11.2293 0.352652 13.0009 1.44885 14.7002 3.0195L13.8262 3.92276C12.3855 2.51787 10.7327 1.47059 8.25234 1.46896C4.28163 1.46624 1.27985 4.72331 1.27715 8.91081V8.95809C1.27337 13.1684 4.31942 16.4538 8.26476 16.4565C10.6512 16.4581 12.2824 15.5315 13.9612 13.8673L14.7881 14.6766C13.0381 16.4119 11.1467 17.5766 8.21725 17.5744C3.49192 17.5711 -0.0026974 13.7864 1.56227e-06 9.00429ZM25.4323 0.64776L26.6609 0.648847L26.6501 17.3016L25.4215 17.3005L25.4323 0.64776ZM37.6489 1.79885L43.4133 1.80211L43.4042 17.313L44.6322 17.3141L44.643 1.8032L50.4085 1.80646L50.4096 0.665153L37.6495 0.657L37.6489 1.79885ZM66.613 10.7396L59.5315 0.671132L61.0672 0.672762L67.2516 9.62168L73.4722 0.680371L74.9372 0.682001L67.8416 10.7162L67.8378 17.3298L66.6087 17.3288L66.613 10.7396ZM94.8782 6.42874C94.8771 7.83255 93.8596 8.78364 92.0875 8.78255L88.4018 8.77983L88.4061 3.99831L92.0206 4.00048C93.7932 4.00211 94.8793 4.81081 94.8782 6.38092V6.42874ZM92.3293 0.693957L84.769 0.689066L84.7577 17.3418L88.3959 17.3445L88.4007 12.0152L91.26 12.0162L94.8 17.3483L99.0524 17.3516L95.0164 11.401C97.1205 10.6168 98.5618 8.92875 98.5639 6.2407V6.19342C98.565 4.62276 98.07 3.31461 97.1491 2.38635C96.0625 1.29124 94.4334 0.695588 92.3293 0.693957ZM121.981 9.08798V9.0407C121.983 6.18526 119.905 3.80591 116.976 3.80374C114.045 3.80157 112.012 6.13092 112.01 8.98635V9.03364C112.008 11.8885 114.085 14.269 117.015 14.2701C119.946 14.2728 121.978 11.9429 121.981 9.08798ZM108.206 9.07874V9.03146C108.208 4.29667 111.921 0.421671 117.025 0.425475C122.128 0.428736 125.788 4.2608 125.785 8.99505V9.04342C125.782 13.7777 122.07 17.6521 116.966 17.6489C111.862 17.6456 108.201 13.8135 108.206 9.07874ZM137.797 0.724935L133.897 0.722761L139.534 17.4978L142.7 17.5005L146.44 6.60701L150.167 17.5054L153.332 17.5076L158.991 0.740152L155.186 0.736892L151.753 12.0114L148.051 0.684174L144.933 0.682544L141.215 12.0032L137.797 0.724935Z" fill="white"/>
</svg>
