<?xml version="1.0" encoding="UTF-8"?>
<svg width="40px" height="40px" viewBox="0 0 40 40" version="1.1" xmlns="http://www.w3.org/2000/svg" xmlns:xlink="http://www.w3.org/1999/xlink">
    <!-- Generator: Sketch 52.3 (67297) - http://www.bohemiancoding.com/sketch -->
    <title>Instagram</title>
    <desc>Created with Sketch.</desc>
    <g id="Symbols" stroke="none" stroke-width="1" fill="none" fill-rule="evenodd">
        <g id="Icons/Social/Instagram" fill="#000000">
            <path d="M4.75465728,0 C2.12857649,0 0,2.1231214 0,4.7437471 L0,35.2562529 C0,37.8757876 2.12857649,40 4.75465728,40 L35.2453427,40 C37.8714235,40 40,37.8757876 40,35.2562529 L40,4.7437471 C40,2.1231214 37.8714235,0 35.2453427,0 L4.75465728,0 Z M29.9997272,5.00013638 L33.7495568,5.00013638 C34.4401713,5.00013638 34.9998636,5.55982871 34.9998636,6.24935221 L34.9998636,10.0002728 C34.9998636,10.6897963 34.4401713,11.2494886 33.7495568,11.2494886 L29.9997272,11.2494886 C29.3102037,11.2494886 28.7505114,10.6897963 28.7505114,10.0002728 L28.7505114,6.24935221 C28.7505114,5.55982871 29.3102037,5.00013638 29.9997272,5.00013638 Z M27.7391376,20.0463683 C27.7391376,24.284974 24.2947931,27.7205902 20.0463683,27.7205902 C15.7990344,27.7205902 12.35469,24.284974 12.35469,20.0463683 C12.35469,15.8088536 15.7990344,12.3721463 20.0463683,12.3721463 C24.2947931,12.3721463 27.7391376,15.8088536 27.7391376,20.0463683 Z M34.9998636,36.2501705 L5.00013638,36.2501705 C4.30952186,36.2501705 3.74982953,35.6893871 3.74982953,34.9998636 L3.74982953,16.249625 L8.74996591,16.249625 C8.09862804,17.1868096 7.87824237,18.9357118 7.87824237,20.0463683 C7.87824237,26.7397649 13.3376974,32.1861277 20.0463683,32.1861277 C26.7561302,32.1861277 32.2155852,26.7397649 32.2155852,20.0463683 C32.2155852,18.9357118 32.0573876,17.214085 31.2500341,16.249625 L36.2501705,16.249625 L36.2501705,34.9998636 C36.2501705,35.6893871 35.6904781,36.2501705 34.9998636,36.2501705 Z" id="Mask"></path>
        </g>
    </g>
</svg>