<?xml version="1.0" encoding="UTF-8"?>
<svg width="40px" height="33px" viewBox="0 0 40 33" version="1.1" xmlns="http://www.w3.org/2000/svg" xmlns:xlink="http://www.w3.org/1999/xlink">
    <!-- Generator: Sketch 52.3 (67297) - http://www.bohemiancoding.com/sketch -->
    <title>Twitter</title>
    <desc>Created with Sketch.</desc>
    <g id="Symbols" stroke="none" stroke-width="1" fill="none" fill-rule="evenodd">
        <g id="Icons/Social/Twitter" transform="translate(0.000000, -4.000000)" fill="#000000">
            <path d="M33.681681,6.62849636 C32.1886097,5.01079748 30.0547353,4 27.6923077,4 C23.1639655,4 19.4889595,7.73022332 19.4889595,12.3306206 C19.4889595,12.9840441 19.5594478,13.6173785 19.7004245,14.2274519 C12.8801431,13.8795937 6.83416549,10.5670116 2.78428964,5.52042549 C2.07727018,6.75537471 1.6735642,8.18804268 1.6735642,9.71375477 C1.6735642,12.6023517 3.1217793,15.1526065 5.32507409,16.646599 C3.98152351,16.6064208 2.7138013,16.2279004 1.60521187,15.6083112 L1.60521187,15.7098138 C1.60521187,19.7477172 4.43435773,23.1163372 8.19160014,23.8786646 C7.50380477,24.0742687 6.77756121,24.1725994 6.02888954,24.1725994 C5.50022695,24.1725994 4.98438042,24.1218481 4.48455397,24.0245747 C5.52906309,27.3329275 8.55792593,29.7425587 12.1496275,29.8070552 C9.34184178,32.0422287 5.80140443,33.3744513 1.95765359,33.3744513 C1.29549035,33.3744513 0.64080314,33.3363878 0,33.2602608 C3.63121779,35.620198 7.94702694,37 12.5800336,37 C27.6762876,37 35.9287641,24.3079363 35.9287641,13.298068 C35.9287641,12.9354074 35.922356,12.5738041 35.908472,12.2185447 C37.5115478,11.0438627 38.9042266,9.57736055 40,7.90679568 C38.5304248,8.56867771 36.947641,9.01698119 35.2879609,9.2178719 C36.9828852,8.18804268 38.2837156,6.55554132 38.8967506,4.61007337 C37.3096948,5.56377559 35.5560302,6.25737721 33.681681,6.62849636 Z" id="Mask"></path>
        </g>
    </g>
</svg>