<svg width="48" height="48" viewBox="0 0 48 48" fill="none" xmlns="http://www.w3.org/2000/svg">
<path fill-rule="evenodd" clip-rule="evenodd" d="M42.4262 18.5343C42.4323 18.6453 42.4242 18.7583 42.3966 18.8705L39.9293 28.8239C39.8049 29.3254 39.3593 29.6779 38.847 29.6807L24.0432 29.7561C24.0413 29.7561 9.23364 29.7561 9.23364 29.7561C8.71865 29.7561 8.26991 29.4023 8.1455 28.8983L5.67821 18.9071C5.64979 18.7919 5.64157 18.6758 5.64875 18.5619C4.69428 18.2586 4 17.3579 4 16.2963C4 14.9865 5.05645 13.9211 6.35514 13.9211C7.65383 13.9211 8.71028 14.9865 8.71028 16.2963C8.71028 17.0339 8.37518 17.6939 7.85047 18.1298L13.9119 22.5171L22.3354 14.0538C21.9089 13.624 21.6449 13.0301 21.6449 12.3753C21.6449 11.0655 22.7013 10 24 10C25.2987 10 26.3551 11.0655 26.3551 12.3753C26.3551 13.0105 26.1051 13.587 25.7009 14.0136C25.7023 14.0155 34.0999 22.5172 34.0999 22.5172L40.1696 18.1451C39.6338 17.7092 39.2897 17.043 39.2897 16.2963C39.2897 14.9865 40.3462 13.9211 41.6449 13.9211C42.9436 13.9211 44 14.9865 44 16.2963C44 17.3295 43.3413 18.2083 42.4262 18.5343ZM39.6885 33.3001C39.6885 32.6754 39.1864 32.169 38.567 32.169H9.55768C8.93832 32.169 8.43619 32.6754 8.43619 33.3001V36.0147C8.43619 36.6393 8.93832 37.1457 9.55768 37.1457H38.567C39.1864 37.1457 39.6885 36.6393 39.6885 36.0147V33.3001Z" fill="black"/>
<mask id="mask0" mask-type="alpha" maskUnits="userSpaceOnUse" x="4" y="10" width="40" height="28">
<path fill-rule="evenodd" clip-rule="evenodd" d="M42.4262 18.5343C42.4323 18.6453 42.4242 18.7583 42.3966 18.8705L39.9293 28.8239C39.8049 29.3254 39.3593 29.6779 38.847 29.6807L24.0432 29.7561C24.0413 29.7561 9.23364 29.7561 9.23364 29.7561C8.71865 29.7561 8.26991 29.4023 8.1455 28.8983L5.67821 18.9071C5.64979 18.7919 5.64157 18.6758 5.64875 18.5619C4.69428 18.2586 4 17.3579 4 16.2963C4 14.9865 5.05645 13.9211 6.35514 13.9211C7.65383 13.9211 8.71028 14.9865 8.71028 16.2963C8.71028 17.0339 8.37518 17.6939 7.85047 18.1298L13.9119 22.5171L22.3354 14.0538C21.9089 13.624 21.6449 13.0301 21.6449 12.3753C21.6449 11.0655 22.7013 10 24 10C25.2987 10 26.3551 11.0655 26.3551 12.3753C26.3551 13.0105 26.1051 13.587 25.7009 14.0136C25.7023 14.0155 34.0999 22.5172 34.0999 22.5172L40.1696 18.1451C39.6338 17.7092 39.2897 17.043 39.2897 16.2963C39.2897 14.9865 40.3462 13.9211 41.6449 13.9211C42.9436 13.9211 44 14.9865 44 16.2963C44 17.3295 43.3413 18.2083 42.4262 18.5343ZM39.6885 33.3001C39.6885 32.6754 39.1864 32.169 38.567 32.169H9.55768C8.93832 32.169 8.43619 32.6754 8.43619 33.3001V36.0147C8.43619 36.6393 8.93832 37.1457 9.55768 37.1457H38.567C39.1864 37.1457 39.6885 36.6393 39.6885 36.0147V33.3001Z" fill="white"/>
</mask>
<g mask="url(#mask0)">
</g>
</svg>
