<svg width="32" height="32" viewBox="0 0 32 32" fill="none" xmlns="http://www.w3.org/2000/svg">
<path fill-rule="evenodd" clip-rule="evenodd" d="M11.2605 20.9585H25.4272C25.5969 20.9585 25.762 20.9031 25.8976 20.8009C26.0331 20.6987 26.1316 20.5551 26.1782 20.3918L29.3032 9.45433C29.3364 9.33807 29.3422 9.2157 29.3201 9.09683C29.298 8.97797 29.2486 8.86586 29.1758 8.76933C29.103 8.6728 29.0087 8.59448 28.9005 8.54054C28.7923 8.48661 28.6731 8.45852 28.5522 8.4585H9.45685L8.898 5.94548C8.85948 5.77194 8.76294 5.61673 8.62431 5.50546C8.48568 5.3942 8.31326 5.33354 8.1355 5.3335H3.448C3.2408 5.3335 3.04208 5.41581 2.89557 5.56232C2.74906 5.70883 2.66675 5.90755 2.66675 6.11475C2.66675 6.32195 2.74906 6.52066 2.89557 6.66717C3.04208 6.81369 3.2408 6.896 3.448 6.896H7.5105L10.3308 19.5892C9.83644 19.8035 9.43098 20.1815 9.18268 20.6596C8.93437 21.1378 8.8584 21.6869 8.96754 22.2145C9.07669 22.7421 9.36428 23.216 9.78192 23.5565C10.1995 23.8969 10.7217 24.083 11.2605 24.0835H12.8121C12.1947 24.0871 11.6034 24.3339 11.1666 24.7707C10.7272 25.2101 10.4801 25.8058 10.4794 26.4272C10.4794 26.8907 10.6168 27.3439 10.8744 27.7293C11.1319 28.1147 11.4979 28.4151 11.9262 28.5925C12.3545 28.7699 12.8257 28.8163 13.2804 28.7259C13.735 28.6355 14.1526 28.4122 14.4804 28.0845C14.8082 27.7567 15.0314 27.3391 15.1218 26.8844C15.2123 26.4298 15.1659 25.9585 14.9885 25.5303C14.8111 25.102 14.5107 24.736 14.1252 24.4784C13.7435 24.2234 13.2954 24.0861 12.8365 24.0835H23.8536C23.2362 24.0871 22.6449 24.3339 22.2081 24.7707C21.7688 25.2101 21.5216 25.8058 21.5209 26.4272C21.5209 26.8907 21.6584 27.3439 21.9159 27.7293C22.1734 28.1147 22.5395 28.4151 22.9677 28.5925C23.396 28.7699 23.8673 28.8163 24.3219 28.7259C24.7765 28.6355 25.1942 28.4122 25.5219 28.0845C25.8497 27.7567 26.0729 27.3391 26.1634 26.8844C26.2538 26.4298 26.2074 25.9585 26.03 25.5303C25.8526 25.102 25.5522 24.736 25.1668 24.4784C24.7851 24.2234 24.3369 24.0861 23.878 24.0835H25.4272C25.6344 24.0835 25.8331 24.0012 25.9796 23.8547C26.1261 23.7082 26.2084 23.5094 26.2084 23.3022C26.2084 23.095 26.1261 22.8963 25.9796 22.7498C25.8331 22.6033 25.6344 22.521 25.4272 22.521H11.2605C11.0533 22.521 10.8546 22.4387 10.7081 22.2922C10.5616 22.1457 10.4792 21.9469 10.4792 21.7397C10.4792 21.5325 10.5616 21.3338 10.7081 21.1873C10.8546 21.0408 11.0533 20.9585 11.2605 20.9585ZM9.80217 10.021H27.5162L24.8376 19.396H11.8855L9.80217 10.021ZM12.8231 25.646C12.9776 25.646 13.1287 25.6918 13.2572 25.7776C13.3856 25.8635 13.4858 25.9855 13.5449 26.1282C13.604 26.271 13.6195 26.4281 13.5894 26.5796C13.5592 26.7312 13.4848 26.8704 13.3756 26.9796C13.2663 27.0889 13.1271 27.1633 12.9755 27.1934C12.824 27.2236 12.6669 27.2081 12.5242 27.149C12.3814 27.0898 12.2594 26.9897 12.1735 26.8612C12.0877 26.7328 12.0419 26.5817 12.0419 26.4272C12.0419 26.22 12.1242 26.0213 12.2707 25.8748C12.4172 25.7283 12.6159 25.646 12.8231 25.646ZM24.2987 25.7776C24.1702 25.6918 24.0192 25.646 23.8647 25.646C23.6575 25.646 23.4587 25.7283 23.3122 25.8748C23.1657 26.0213 23.0834 26.22 23.0834 26.4272C23.0834 26.5817 23.1292 26.7328 23.2151 26.8612C23.3009 26.9897 23.4229 27.0898 23.5657 27.149C23.7084 27.2081 23.8655 27.2236 24.0171 27.1934C24.1686 27.1633 24.3078 27.0889 24.4171 26.9796C24.5264 26.8704 24.6008 26.7312 24.6309 26.5796C24.661 26.4281 24.6456 26.271 24.5864 26.1282C24.5273 25.9855 24.4272 25.8635 24.2987 25.7776Z" fill="white"/>
</svg>
