<svg width="80" height="80" viewBox="0 0 80 80" fill="none" xmlns="http://www.w3.org/2000/svg">
<path fill-rule="evenodd" clip-rule="evenodd" d="M40 80C62.0914 80 80 62.0914 80 40C80 17.9086 62.0914 0 40 0C17.9086 0 0 17.9086 0 40C0 62.0914 17.9086 80 40 80ZM40 74.6667C59.1459 74.6667 74.6667 59.1459 74.6667 40C74.6667 20.8541 59.1459 5.33333 40 5.33333C20.8541 5.33333 5.33333 20.8541 5.33333 40C5.33333 59.1459 20.8541 74.6667 40 74.6667Z" fill="#90CC9F"/>
<path fill-rule="evenodd" clip-rule="evenodd" d="M27.2807 40.7282C26.1236 39.4939 24.2476 39.4939 23.0905 40.7282C21.9334 41.9624 21.9334 43.9635 23.0905 45.1978L31.9794 54.6792C33.1913 55.972 35.1757 55.9015 36.3043 54.5256L57.0451 29.2417C58.1226 27.9281 57.9978 25.9314 56.7663 24.782C55.5348 23.6326 53.6629 23.7657 52.5854 25.0793L33.9302 47.8209L27.2807 40.7282Z" fill="#90CC9F"/>
<mask id="mask0_9248_138989" style="mask-type:alpha" maskUnits="userSpaceOnUse" x="22" y="24" width="36" height="32">
<path fill-rule="evenodd" clip-rule="evenodd" d="M27.2807 40.7282C26.1236 39.4939 24.2476 39.4939 23.0905 40.7282C21.9334 41.9624 21.9334 43.9635 23.0905 45.1978L31.9794 54.6792C33.1913 55.972 35.1757 55.9015 36.3043 54.5256L57.0451 29.2417C58.1226 27.9281 57.9978 25.9314 56.7663 24.782C55.5348 23.6326 53.6629 23.7657 52.5854 25.0793L33.9302 47.8209L27.2807 40.7282Z" fill="white"/>
</mask>
<g mask="url(#mask0_9248_138989)">
</g>
</svg>
