<svg width="32" height="32" viewBox="0 0 32 32" fill="none" xmlns="http://www.w3.org/2000/svg">
<path fill-rule="evenodd" clip-rule="evenodd" d="M9.29325 10.2016C9.29325 6.74509 12.2485 4 15.7993 4C19.35 4 22.3053 6.74509 22.3053 10.2016C22.3053 13.6582 19.35 16.4033 15.7993 16.4033C12.2485 16.4033 9.29325 13.6582 9.29325 10.2016ZM15.7993 5.44578C12.9724 5.44578 10.739 7.61623 10.739 10.2016C10.739 12.7871 12.9724 14.9575 15.7993 14.9575C18.6262 14.9575 20.8595 12.7871 20.8595 10.2016C20.8595 7.61623 18.6262 5.44578 15.7993 5.44578ZM4.66675 26.1814C4.66675 21.5173 8.65946 17.7882 13.486 17.7882H18.1125C22.9379 17.7882 26.9318 21.5173 26.9318 26.1814V27.2771C26.9318 27.6763 26.6082 28 26.2089 28C25.8097 28 25.486 27.6763 25.486 27.2771V26.1814C25.486 22.3884 22.214 19.234 18.1125 19.234H13.486C9.38343 19.234 6.11253 22.3884 6.11253 26.1814V27.2771C6.11253 27.6763 5.78888 28 5.38964 28C4.9904 28 4.66675 27.6763 4.66675 27.2771V26.1814Z" fill="white"/>
</svg>
